<svg id="Vrstva_1" data-name="Vrstva 1" xmlns="http://www.w3.org/2000/svg" viewBox="0 0 283.46 283.46"><defs><style>.cls-1{fill:#ce385c;}.cls-2{fill:#65c3eb;}</style></defs><path class="cls-1" d="M38.25,113.47V27.07A13.48,13.48,0,0,1,51.73,13.58h12A13.49,13.49,0,0,1,77.24,27.07V70.35"/><path class="cls-1" d="M28,150.43,130.43,56.29a16.7,16.7,0,0,1,22.6,0l102.4,94.14a16.7,16.7,0,0,0,11.3,4.41h0c15.22,0,22.51-18.71,11.3-29L153,10.91a16.68,16.68,0,0,0-22.6,0L5.43,125.82c-11.2,10.31-3.92,29,11.31,29h0A16.72,16.72,0,0,0,28,150.43Z"/><path class="cls-2" d="M141.69,241.82a17.57,17.57,0,1,0,17.62,17.57A17.62,17.62,0,0,0,141.69,241.82Z"/><path class="cls-2" d="M184.68,217.89a60.86,60.86,0,0,0-85.88-.12,11.87,11.87,0,0,0,16.78,16.78,37,37,0,0,1,52.28.06,11.86,11.86,0,0,0,16.82-16.72Z"/><path class="cls-2" d="M239.91,162.82a139.14,139.14,0,0,0-196.35-.1,11.86,11.86,0,0,0,16.79,16.75,115.35,115.35,0,0,1,162.76.08,11.85,11.85,0,0,0,16.8-16.73Z"/><path class="cls-2" d="M211.6,191a99,99,0,0,0-139.72-.1A11.86,11.86,0,0,0,88.67,207.7a75.2,75.2,0,0,1,106.12.08A11.86,11.86,0,1,0,211.6,191Z"/></svg>